<svg width="54" height="53" viewBox="0 0 54 53" fill="none" xmlns="http://www.w3.org/2000/svg">
  <path d="M51.7 45.3C53.5 47.1 53.5 49.9 51.7 51.7C50.8 52.6 49.7 53 48.5 53C47.3 53 46.2 52.6 45.3 51.7L27 33.4L8.70001 51.7C7.80001 52.6 6.70001 53 5.50001 53C4.30001 53 3.20001 52.6 2.30001 51.7C0.500012 49.9 0.500012 47.1 2.30001 45.3L20.6 27L2.30001 8.7C0.500012 6.9 0.500012 4.1 2.30001 2.3C4.10001 0.499997 6.90001 0.499997 8.70001 2.3L27 20.6L45.3 2.3C47.1 0.499997 49.9 0.499997 51.7 2.3C53.5 4.1 53.5 6.9 51.7 8.7L33.4 27L51.7 45.3Z"/>
</svg>
