<svg width="70" height="74" viewBox="0 0 70 74" fill="none" xmlns="http://www.w3.org/2000/svg">
	<path d="M48.5 33.9L6.5 0.899975C5.3 -2.50936e-05 3.7 -0.200025 2.3 0.399975C0.9 1.09997 0 2.49998 0 3.99998V70C0 71.5 0.9 72.9 2.3 73.6C2.9 73.9 3.5 74 4 74C4.9 74 5.8 73.7 6.5 73.1L48.5 40.1C49.5 39.3 50 38.2 50 37C50 35.8 49.4 34.6 48.5 33.9ZM8 61.8V12.2L39.5 37L8 61.8ZM70 5.59998V69.1C70 71.6 68 73.6 65.5 73.6C63 73.6 61 71.6 61 69.1V5.59998C61 3.09998 63 1.09998 65.5 1.09998C68 1.09998 70 3.09998 70 5.59998Z" />
</svg>
