<svg width="86" height="88" viewBox="0 0 86 88" fill="none" xmlns="http://www.w3.org/2000/svg">
  <path d="M85.9 4.3C85.9 3.1 85.4 1.9 84.4 1.2C83.5 0.400002 82.3 0.100002 81.1 0.400002L30.7 10.6C28.8 11 27.5 12.6 27.5 14.5V60.4C24.7 58.8 21.3 57.9 17.7 57.9C13.1 57.9 8.8 59.3 5.4 62.1C1.9 65.1 0 68.7 0 73C0 81.5 8 88 17.7 88C22.3 88 26.4 86.8 29.7 84.1C33.2 81.2 34.9 77.4 34.9 73.2V73.3L35.2 34.1L77.7 25.5V49.3C75 47.7 71.8 47 68.2 47C63.6 47 59.3 48.3 55.9 51C52.4 53.9 50.4 57.6 50.4 61.9C50.4 70.4 58.4 77 68.1 77C77.4 77 85.1 70.9 85.8 62.9C85.8 62.8 85.8 62.4 85.8 61.3L85.9 4.3ZM24.9 77.9C23 79.5 20.5 80 17.7 80C12.4 80 8 77 8 73C8 71.2 8.9 69.6 10.6 68.3C12.5 66.7 15 66.1 17.8 66.1C23.1 66.1 27.6 69.3 27.6 73.3C27.5 75 26.6 76.5 24.9 77.9ZM35.5 26.9V17.8L77.9 9.1V18.2L35.5 26.9ZM68.2 69C62.9 69 58.4 65.8 58.4 61.8C58.4 60 59.3 58.5 61 57.1C62.9 55.5 65.4 55 68.2 55C73.2 55 78 57.6 78 61.4V62.5C77 66.3 73.2 69 68.2 69Z" />
</svg>
