<svg width="71" height="75" viewBox="0 0 71 75" fill="none" xmlns="http://www.w3.org/2000/svg">
	<path d="M68.7 1.40001C67.3 0.70001 65.7 0.90001 64.5 1.90001L23 34.9C22 35.7 21.5 36.8 21.5 38C21.5 39.2 22.1 40.4 23 41.1L64.5 74.1C65.2 74.7 66.1 75 67 75C67.6 75 68.2 74.9 68.7 74.6C70.1 73.9 71 72.5 71 71V5.00001C71 3.50001 70.1 2.10001 68.7 1.40001ZM63 62.7L31.9 38L63 13.3V62.7ZM9 6.60001V70.1C9 72.6 7 74.6 4.5 74.6C2 74.6 0 72.6 0 70.1V6.60001C0 4.10001 2 2.10001 4.5 2.10001C7 2.10001 9 4.10001 9 6.60001Z" />
</svg>
